<?xml version="1.0" encoding="UTF-8" standalone="no"?>
<!-- Created with Inkscape (http://www.inkscape.org/) -->

<svg
   version="1.1"
   id="svg1"
   width="32"
   height="320"
   viewBox="0 0 32 320"
   sodipodi:docname="cursor.pdf"
   xmlns:inkscape="http://www.inkscape.org/namespaces/inkscape"
   xmlns:sodipodi="http://sodipodi.sourceforge.net/DTD/sodipodi-0.dtd"
   xmlns="http://www.w3.org/2000/svg"
   xmlns:svg="http://www.w3.org/2000/svg">
  <defs
     id="defs1" />
  <sodipodi:namedview
     id="namedview1"
     pagecolor="#ffffff"
     bordercolor="#000000"
     borderopacity="0.25"
     inkscape:showpageshadow="2"
     inkscape:pageopacity="0.0"
     inkscape:pagecheckerboard="0"
     inkscape:deskcolor="#d1d1d1">
    <inkscape:page
       x="0"
       y="0"
       inkscape:label="1"
       id="page1"
       width="32"
       height="320"
       margin="5.1731734 5.3893332 10.462667 5.5683599"
       bleed="0" />
  </sodipodi:namedview>
  <g
     id="g1"
     inkscape:groupmode="layer"
     inkscape:label="1">
    <g
       id="group-MC0">
      <path
         id="path2"
         d="M 0,0 C 0.48,0.178 1.427,0.069 1.677,-0.473 1.89,-0.935 2.073,-1.714 2.083,-1.548 2.107,-1.179 2.059,-0.381 2.22,0.036 2.337,0.34 2.567,0.626 2.906,0.727 3.191,0.813 3.526,0.843 3.822,0.782 4.135,0.718 4.464,0.495 4.587,0.283 4.949,-0.34 4.955,-1.616 4.972,-1.548 5.036,-1.276 5.042,-0.319 5.255,0.036 5.396,0.271 5.752,0.481 5.942,0.515 6.236,0.567 6.598,0.583 6.906,0.523 7.155,0.474 7.492,0.179 7.583,0.036 7.802,-0.308 7.925,-1.28 7.962,-1.622 c 0.016,-0.141 0.074,0.393 0.293,0.736 0.406,0.639 1.844,0.763 1.898,-0.639 0.026,-0.654 0.02,-0.624 0.02,-1.064 0,-0.516 -0.012,-0.828 -0.04,-1.202 -0.03,-0.399 -0.116,-1.304 -0.241,-1.742 -0.086,-0.301 -0.371,-0.978 -0.653,-1.384 0,0 -1.074,-1.25 -1.191,-1.812 -0.117,-0.563 -0.078,-0.567 -0.102,-0.965 -0.023,-0.399 0.121,-0.923 0.121,-0.923 0,0 -0.801,-0.104 -1.234,-0.034 -0.391,0.062 -0.875,0.84 -1,1.078 -0.172,0.328 -0.539,0.265 -0.682,0.023 -0.224,-0.383 -0.709,-1.07 -1.05,-1.113 -0.669,-0.084 -2.055,-0.03 -3.14,-0.02 0,0 0.185,1.011 -0.227,1.358 -0.305,0.26 -0.83,0.784 -1.144,1.06 l -0.832,0.921 c -0.283,0.36 -1.002,0.929 -1.243,1.985 -0.213,0.936 -0.192,1.395 0.037,1.77 0.232,0.381 0.67,0.589 0.854,0.625 0.208,0.042 0.692,0.039 0.875,-0.062 0.223,-0.123 0.313,-0.159 0.488,-0.391 0.23,-0.307 0.312,-0.456 0.213,-0.121 -0.076,0.262 -0.322,0.595 -0.434,0.97 -0.109,0.361 -0.401,0.943 -0.38,1.526 C -0.824,-0.821 -0.729,-0.271 0,0"
         style="fill:#ffffff;fill-opacity:1;fill-rule:nonzero;stroke:#000000;stroke-width:0.75;stroke-linecap:butt;stroke-linejoin:round;stroke-miterlimit:4;stroke-dasharray:none;stroke-opacity:1"
         transform="matrix(1.3333333,0,0,-1.3333333,11.430933,12.048133)" />
      <path
         id="path3"
         d="M 0,0 V 3.459"
         style="fill:none;stroke:#000000;stroke-width:0.75;stroke-linecap:round;stroke-linejoin:miter;stroke-miterlimit:4;stroke-dasharray:none;stroke-opacity:1"
         transform="matrix(1.3333333,0,0,-1.3333333,20.7552,22.312533)" />
      <path
         id="path4"
         d="M 0,0 -0.016,3.473"
         style="fill:none;stroke:#000000;stroke-width:0.75;stroke-linecap:round;stroke-linejoin:miter;stroke-miterlimit:4;stroke-dasharray:none;stroke-opacity:1"
         transform="matrix(1.3333333,0,0,-1.3333333,18.067733,22.328133)" />
      <path
         id="path5"
         d="M 0,0 0.021,-3.426"
         style="fill:none;stroke:#000000;stroke-width:0.75;stroke-linecap:round;stroke-linejoin:miter;stroke-miterlimit:4;stroke-dasharray:none;stroke-opacity:1"
         transform="matrix(1.3333333,0,0,-1.3333333,15.406267,17.7396)" />
      <path
         id="path6"
         d="m 0,0 c 0.016,-0.142 0.074,0.392 0.293,0.736 0.406,0.639 1.844,0.763 1.898,-0.639 0.026,-0.655 0.02,-0.624 0.02,-1.064 0,-0.517 -0.012,-0.828 -0.04,-1.202 -0.03,-0.4 -0.116,-1.304 -0.241,-1.743 -0.086,-0.3 -0.371,-0.977 -0.653,-1.383 0,0 -1.074,-1.25 -1.191,-1.813 -0.117,-0.562 -0.078,-0.566 -0.102,-0.965 -0.023,-0.398 0.121,-0.923 0.121,-0.923 0,0 -0.801,-0.103 -1.234,-0.034 -0.391,0.063 -0.875,0.841 -1,1.078 -0.172,0.328 -0.539,0.266 -0.682,0.024 -0.224,-0.383 -0.709,-1.071 -1.05,-1.114 -0.669,-0.083 -2.055,-0.03 -3.139,-0.019 0,0 0.185,1.011 -0.228,1.357 -0.305,0.26 -0.83,0.785 -1.144,1.061 l -0.832,0.921 c -0.283,0.359 -1.002,0.929 -1.243,1.984 -0.213,0.937 -0.192,1.396 0.037,1.771 0.232,0.381 0.67,0.588 0.854,0.625 0.208,0.041 0.692,0.038 0.875,-0.063 0.223,-0.122 0.313,-0.158 0.488,-0.39 0.23,-0.307 0.301,-0.459 0.214,-0.122 -0.099,0.375 -0.197,0.848 -0.407,1.553 -0.167,0.557 -0.342,0.859 -0.469,1.233 -0.156,0.455 -0.304,0.721 -0.497,1.181 -0.139,0.329 -0.363,1.048 -0.457,1.44 -0.118,0.508 0.034,0.923 0.245,1.206 0.252,0.339 0.961,0.489 1.356,0.351 0.372,-0.13 0.745,-0.513 0.916,-0.788 0.288,-0.461 0.358,-0.633 0.717,-1.542 0.393,-0.992 0.686,-2.363 0.697,-2.663 0.024,0.369 -0.025,1.187 0.136,1.604 0.117,0.304 0.347,0.59 0.686,0.691 0.285,0.085 0.62,0.115 0.916,0.055 0.313,-0.065 0.642,-0.288 0.765,-0.499 0.362,-0.624 0.369,-1.9 0.385,-1.831 0.086,0.376 0.07,1.229 0.283,1.584 0.141,0.234 0.497,0.445 0.687,0.479 0.294,0.051 0.656,0.068 0.964,0.008 C -0.807,2.096 -0.47,1.8 -0.379,1.658 -0.16,1.314 -0.037,0.341 0,0"
         style="fill:#ffffff;fill-opacity:1;fill-rule:nonzero;stroke:#000000;stroke-width:0.75;stroke-linecap:butt;stroke-linejoin:round;stroke-miterlimit:4;stroke-dasharray:none;stroke-opacity:1"
         transform="matrix(1.3333333,0,0,-1.3333333,22.046933,46.210267)" />
      <path
         id="path7"
         d="M 0,0 V 3.459"
         style="fill:none;stroke:#000000;stroke-width:0.75;stroke-linecap:round;stroke-linejoin:miter;stroke-miterlimit:4;stroke-dasharray:none;stroke-opacity:1"
         transform="matrix(1.3333333,0,0,-1.3333333,20.7552,54.312533)" />
      <path
         id="path8"
         d="M 0,0 -0.016,3.473"
         style="fill:none;stroke:#000000;stroke-width:0.75;stroke-linecap:round;stroke-linejoin:miter;stroke-miterlimit:4;stroke-dasharray:none;stroke-opacity:1"
         transform="matrix(1.3333333,0,0,-1.3333333,18.067733,54.328133)" />
      <path
         id="path9"
         d="M 0,0 0.021,-3.426"
         style="fill:none;stroke:#000000;stroke-width:0.75;stroke-linecap:round;stroke-linejoin:miter;stroke-miterlimit:4;stroke-dasharray:none;stroke-opacity:1"
         transform="matrix(1.3333333,0,0,-1.3333333,15.406267,49.7396)" />
      <path
         id="path10"
         d="M 0,0 C 0.016,-0.142 0.074,0.393 0.293,0.736 0.699,1.375 2.137,1.5 2.191,0.098 c 0.026,-0.656 0.02,-0.624 0.02,-1.065 0,-0.516 -0.012,-0.828 -0.04,-1.201 -0.03,-0.4 -0.116,-1.305 -0.241,-1.744 -0.086,-0.299 -0.371,-0.977 -0.653,-1.383 0,0 -1.074,-1.25 -1.191,-1.812 -0.117,-0.563 -0.078,-0.567 -0.102,-0.965 -0.023,-0.399 0.121,-0.924 0.121,-0.924 0,0 -0.801,-0.103 -1.234,-0.033 -0.391,0.062 -0.875,0.841 -1,1.078 -0.172,0.328 -0.539,0.265 -0.682,0.023 -0.224,-0.383 -0.709,-1.07 -1.05,-1.113 -0.669,-0.084 -2.055,-0.03 -3.139,-0.02 0,0 0.185,1.012 -0.228,1.358 -0.305,0.26 -0.83,0.785 -1.144,1.06 l -0.832,0.921 c -0.283,0.36 -1.002,0.929 -1.243,1.985 -0.213,0.936 -0.192,1.395 0.037,1.77 0.232,0.381 0.67,0.588 0.854,0.625 0.208,0.041 0.692,0.038 0.875,-0.062 0.223,-0.122 0.313,-0.159 0.488,-0.391 0.23,-0.307 0.301,-0.459 0.214,-0.121 -0.099,0.375 -0.197,0.848 -0.407,1.553 -0.167,0.556 -0.342,0.859 -0.469,1.232 -0.156,0.455 -0.304,0.721 -0.497,1.182 -0.139,0.328 -0.363,1.048 -0.457,1.439 -0.118,0.508 0.034,0.924 0.245,1.206 0.252,0.339 0.961,0.49 1.356,0.351 0.372,-0.129 0.745,-0.512 0.916,-0.787 0.288,-0.461 0.358,-0.633 0.717,-1.543 0.393,-0.991 0.686,-2.363 0.697,-2.662 0.024,0.369 -0.025,1.187 0.136,1.603 0.117,0.305 0.347,0.59 0.686,0.692 0.285,0.085 0.62,0.115 0.916,0.054 0.313,-0.064 0.642,-0.287 0.765,-0.499 0.362,-0.624 0.369,-1.899 0.385,-1.831 0.086,0.377 0.07,1.23 0.283,1.584 0.141,0.235 0.497,0.446 0.687,0.48 0.294,0.05 0.656,0.067 0.964,0.008 C -0.807,2.097 -0.47,1.801 -0.379,1.658 -0.16,1.314 -0.037,0.342 0,0"
         style="fill:#ffffff;fill-opacity:1;fill-rule:nonzero;stroke:#000000;stroke-width:0.75;stroke-linecap:butt;stroke-linejoin:round;stroke-miterlimit:4;stroke-dasharray:none;stroke-opacity:1"
         transform="matrix(1.3333333,0,0,-1.3333333,22.046933,302.21093)" />
      <path
         id="path11"
         d="M 0,0 V 3.459"
         style="fill:none;stroke:#000000;stroke-width:0.75;stroke-linecap:round;stroke-linejoin:miter;stroke-miterlimit:4;stroke-dasharray:none;stroke-opacity:1"
         transform="matrix(1.3333333,0,0,-1.3333333,20.7552,310.31253)" />
      <path
         id="path12"
         d="M 0,0 -0.016,3.473"
         style="fill:none;stroke:#000000;stroke-width:0.75;stroke-linecap:round;stroke-linejoin:miter;stroke-miterlimit:4;stroke-dasharray:none;stroke-opacity:1"
         transform="matrix(1.3333333,0,0,-1.3333333,18.067733,310.32813)" />
      <path
         id="path13"
         d="M 0,0 0.021,-3.426"
         style="fill:none;stroke:#000000;stroke-width:0.75;stroke-linecap:round;stroke-linejoin:miter;stroke-miterlimit:4;stroke-dasharray:none;stroke-opacity:1"
         transform="matrix(1.3333333,0,0,-1.3333333,15.406267,305.7396)" />
      <path
         id="path14"
         d="M 0,0 0.012,0.014 C 0.027,-0.127 0.086,0.406 0.305,0.75 0.711,1.389 2.148,1.513 2.203,0.111 2.229,-0.543 2.223,-0.513 2.223,-0.953 2.223,-1.47 2.211,-1.781 2.183,-2.155 2.152,-2.555 2.066,-3.459 1.941,-3.897 1.854,-4.198 1.57,-4.875 1.289,-5.281 c 0,0 -1.074,-1.25 -1.191,-1.813 -0.119,-0.562 -0.078,-0.566 -0.102,-0.965 -0.023,-0.398 0.121,-0.922 0.121,-0.922 0,0 -0.802,-0.104 -1.234,-0.035 -0.391,0.063 -0.875,0.841 -1,1.078 -0.172,0.329 -0.539,0.266 -0.682,0.024 -0.224,-0.383 -0.709,-1.07 -1.051,-1.113 -0.668,-0.084 -2.054,-0.031 -3.139,-0.02 0,0 0.185,1.011 -0.227,1.358 -0.305,0.259 -0.83,0.784 -1.144,1.06 l -0.832,0.921 c -0.284,0.359 -1.002,0.929 -1.243,1.984 -0.213,0.937 -0.192,1.396 0.037,1.771 0.232,0.381 0.669,0.588 0.854,0.625 0.208,0.041 0.691,0.038 0.875,-0.063 0.223,-0.122 0.313,-0.158 0.487,-0.39 0.23,-0.307 0.302,-0.459 0.214,-0.121 -0.098,0.374 -0.195,0.847 -0.406,1.552 -0.167,0.557 -0.342,0.859 -0.47,1.233 -0.155,0.455 -0.303,0.721 -0.496,1.181 -0.139,0.329 -0.364,1.048 -0.457,1.44 -0.119,0.508 0.033,0.923 0.244,1.206 0.253,0.339 0.962,0.489 1.357,0.351 0.371,-0.13 0.744,-0.513 0.916,-0.788 0.288,-0.46 0.358,-0.632 0.717,-1.542 0.393,-0.992 0.686,-2.402 0.696,-2.703 l -0.02,0.04 c -0.001,0.04 -0.023,1.102 -0.024,1.142 -0.035,1.029 -0.06,1.822 -0.038,2.939 0.002,0.126 0.064,0.587 0.084,0.715 0.078,0.5 0.305,0.8 0.673,0.979 0.412,0.201 0.926,0.215 1.401,0.017 0.423,-0.173 0.626,-0.55 0.687,-1.022 0.014,-0.109 0.094,-0.987 0.093,-1.107 -0.012,-1.025 0.006,-1.641 0.015,-2.174 0.004,-0.232 -0.009,-1.623 0.017,-1.469 0.065,0.271 0.071,1.229 0.284,1.584 0.14,0.234 0.497,0.445 0.687,0.479 0.294,0.052 0.654,0.068 0.964,0.008 0.249,-0.049 0.586,-0.345 0.677,-0.487 0.219,-0.344 0.342,-1.317 0.379,-1.658 z"
         style="fill:#ffffff;fill-opacity:1;fill-rule:nonzero;stroke:#000000;stroke-width:0.75;stroke-linecap:butt;stroke-linejoin:round;stroke-miterlimit:4;stroke-dasharray:none;stroke-opacity:1"
         transform="matrix(1.3333333,0,0,-1.3333333,22.0312,78.2292)" />
      <path
         id="path15"
         d="M 0,0 V 3.459"
         style="fill:none;stroke:#000000;stroke-width:0.75;stroke-linecap:round;stroke-linejoin:miter;stroke-miterlimit:4;stroke-dasharray:none;stroke-opacity:1"
         transform="matrix(1.3333333,0,0,-1.3333333,20.7552,86.312533)" />
      <path
         id="path16"
         d="M 0,0 -0.016,3.473"
         style="fill:none;stroke:#000000;stroke-width:0.75;stroke-linecap:round;stroke-linejoin:miter;stroke-miterlimit:4;stroke-dasharray:none;stroke-opacity:1"
         transform="matrix(1.3333333,0,0,-1.3333333,18.067733,86.328133)" />
      <path
         id="path17"
         d="M 0,0 0.021,-3.426"
         style="fill:none;stroke:#000000;stroke-width:0.75;stroke-linecap:round;stroke-linejoin:miter;stroke-miterlimit:4;stroke-dasharray:none;stroke-opacity:1"
         transform="matrix(1.3333333,0,0,-1.3333333,15.406267,81.7396)" />
      <path
         id="path18"
         d="m 0,0 0.012,0.014 c 0.015,-0.141 0.074,0.392 0.293,0.736 0.406,0.639 1.843,0.764 1.898,-0.639 0.026,-0.654 0.02,-0.625 0.02,-1.064 0,-0.518 -0.012,-0.828 -0.04,-1.202 C 2.152,-2.555 2.066,-3.459 1.941,-3.896 1.854,-4.198 1.57,-4.875 1.289,-5.281 c 0,0 -1.074,-1.25 -1.191,-1.813 C -0.021,-7.656 0.02,-7.66 -0.004,-8.059 -0.027,-8.457 0.117,-8.98 0.117,-8.98 c 0,0 -0.802,-0.105 -1.234,-0.036 -0.391,0.063 -0.875,0.841 -1,1.078 -0.172,0.329 -0.539,0.266 -0.682,0.024 -0.224,-0.383 -0.709,-1.07 -1.051,-1.113 -0.668,-0.084 -2.054,-0.032 -3.139,-0.02 0,0 0.185,1.011 -0.227,1.358 -0.305,0.259 -0.83,0.784 -1.144,1.06 l -0.832,0.921 c -0.284,0.358 -1.002,0.929 -1.243,1.983 -0.213,0.938 -0.192,1.397 0.037,1.772 0.232,0.381 0.669,0.588 0.854,0.625 0.208,0.041 0.691,0.038 0.875,-0.063 0.223,-0.123 0.313,-0.158 0.487,-0.39 0.23,-0.307 0.302,-0.459 0.214,-0.121 -0.098,0.375 -0.195,0.847 -0.406,1.552 -0.167,0.557 -0.342,0.859 -0.47,1.233 -0.155,0.455 -0.303,0.721 -0.496,1.181 -0.139,0.329 -0.364,1.047 -0.457,1.44 -0.119,0.508 0.033,0.923 0.244,1.206 0.253,0.339 0.962,0.489 1.357,0.351 0.371,-0.129 0.744,-0.513 0.916,-0.788 0.288,-0.46 0.358,-0.632 0.717,-1.543 0.393,-0.992 0.686,-2.401 0.696,-2.703 l -0.02,0.041 C -5.888,0.107 -5.91,1.17 -5.911,1.21 c -0.035,1.028 -0.06,1.821 -0.038,2.938 0.002,0.127 0.064,0.588 0.084,0.715 0.078,0.5 0.305,0.801 0.673,0.98 0.412,0.201 0.926,0.216 1.401,0.016 0.423,-0.171 0.626,-0.548 0.687,-1.021 0.014,-0.109 0.094,-0.986 0.093,-1.108 -0.012,-1.024 0.006,-1.64 0.015,-2.173 0.004,-0.232 -0.009,-1.623 0.017,-1.469 0.065,0.271 0.071,1.228 0.284,1.584 0.14,0.234 0.497,0.445 0.687,0.478 0.294,0.053 0.654,0.069 0.964,0.009 0.249,-0.05 0.586,-0.345 0.677,-0.487 0.219,-0.344 0.342,-1.317 0.379,-1.658 z"
         style="fill:#ffffff;fill-opacity:1;fill-rule:nonzero;stroke:#000000;stroke-width:0.75;stroke-linecap:butt;stroke-linejoin:round;stroke-miterlimit:4;stroke-dasharray:none;stroke-opacity:1"
         transform="matrix(1.3333333,0,0,-1.3333333,22.0312,270.2292)" />
      <path
         id="path19"
         d="M 0,0 V 3.459"
         style="fill:none;stroke:#000000;stroke-width:0.75;stroke-linecap:round;stroke-linejoin:miter;stroke-miterlimit:4;stroke-dasharray:none;stroke-opacity:1"
         transform="matrix(1.3333333,0,0,-1.3333333,20.7552,278.31253)" />
      <path
         id="path20"
         d="M 0,0 -0.016,3.473"
         style="fill:none;stroke:#000000;stroke-width:0.75;stroke-linecap:round;stroke-linejoin:miter;stroke-miterlimit:4;stroke-dasharray:none;stroke-opacity:1"
         transform="matrix(1.3333333,0,0,-1.3333333,18.067733,278.32813)" />
      <path
         id="path21"
         d="M 0,0 0.021,-3.426"
         style="fill:none;stroke:#000000;stroke-width:0.75;stroke-linecap:round;stroke-linejoin:miter;stroke-miterlimit:4;stroke-dasharray:none;stroke-opacity:1"
         transform="matrix(1.3333333,0,0,-1.3333333,15.406267,273.7396)" />
      <path
         id="path22"
         d="M 0,0 C -0.001,0.04 -0.023,1.142 -0.024,1.182 -0.059,2.211 -0.084,3.004 -0.062,4.12 -0.06,4.246 0.002,4.708 0.022,4.836 0.1,5.336 0.327,5.636 0.695,5.814 1.107,6.016 1.621,6.029 2.096,5.832 2.519,5.658 2.722,5.281 2.783,4.81 2.797,4.7 2.877,3.822 2.876,3.702 2.863,2.678 2.882,2.062 2.891,1.528 2.895,1.297 2.894,-0.097 2.908,0.06 2.969,0.716 3.002,3.249 3.252,4.002 3.396,4.435 3.657,4.747 4.046,4.931 4.477,5.134 5.159,5.001 5.45,4.688 5.735,4.382 5.896,3.995 5.932,3.534 5.964,3.129 5.913,2.638 5.912,2.29 5.912,1.422 5.848,0.457 5.898,-0.015 5.914,-0.155 5.973,0.378 6.191,0.722 6.598,1.36 8.035,1.484 8.09,0.083 8.115,-0.571 8.109,-0.541 8.109,-0.981 8.109,-1.498 8.098,-1.81 8.069,-2.184 8.039,-2.583 7.953,-3.487 7.828,-3.926 7.742,-4.227 7.457,-4.903 7.176,-5.31 c 0,0 -1.074,-1.25 -1.192,-1.812 C 5.867,-7.685 5.906,-7.688 5.883,-8.087 5.859,-8.485 6.004,-9.01 6.004,-9.01 c 0,0 -0.802,-0.103 -1.234,-0.033 -0.391,0.062 -0.875,0.84 -1,1.077 C 3.598,-7.638 3.23,-7.7 3.088,-7.942 2.863,-8.325 2.379,-9.013 2.037,-9.056 1.369,-9.14 -0.017,-9.085 -1.102,-9.075 c 0,0 0.185,1.011 -0.227,1.357 -0.305,0.26 -0.83,0.784 -1.144,1.061 l -0.832,0.921 c -0.284,0.36 -1.003,0.928 -1.243,1.985 -0.214,0.936 -0.193,1.395 0.036,1.77 0.233,0.38 0.67,0.587 0.854,0.625 0.209,0.042 0.692,0.039 0.875,-0.062 0.223,-0.123 0.314,-0.159 0.488,-0.392 0.23,-0.306 0.302,-0.459 0.214,-0.121 -0.098,0.374 -0.195,0.848 -0.406,1.552 -0.167,0.558 -0.342,0.859 -0.47,1.233 -0.155,0.456 -0.303,0.721 -0.496,1.181 -0.139,0.329 -0.364,1.049 -0.457,1.441 -0.119,0.507 0.033,0.922 0.244,1.206 0.253,0.339 0.962,0.489 1.357,0.35 0.371,-0.13 0.744,-0.511 0.916,-0.788 0.288,-0.46 0.357,-0.632 0.717,-1.542 C -0.283,1.711 0.009,0.301 0.02,0 Z"
         style="fill:#ffffff;fill-opacity:1;fill-rule:nonzero;stroke:#000000;stroke-width:0.75;stroke-linecap:butt;stroke-linejoin:round;stroke-miterlimit:4;stroke-dasharray:none;stroke-opacity:1"
         transform="matrix(1.3333333,0,0,-1.3333333,14.182267,110.19147)" />
      <path
         id="path23"
         d="M 0,0 V 3.459"
         style="fill:none;stroke:#000000;stroke-width:0.75;stroke-linecap:round;stroke-linejoin:miter;stroke-miterlimit:4;stroke-dasharray:none;stroke-opacity:1"
         transform="matrix(1.3333333,0,0,-1.3333333,20.7552,118.31253)" />
      <path
         id="path24"
         d="M 0,0 -0.016,3.473"
         style="fill:none;stroke:#000000;stroke-width:0.75;stroke-linecap:round;stroke-linejoin:miter;stroke-miterlimit:4;stroke-dasharray:none;stroke-opacity:1"
         transform="matrix(1.3333333,0,0,-1.3333333,18.067733,118.32813)" />
      <path
         id="path25"
         d="M 0,0 0.021,-3.426"
         style="fill:none;stroke:#000000;stroke-width:0.75;stroke-linecap:round;stroke-linejoin:miter;stroke-miterlimit:4;stroke-dasharray:none;stroke-opacity:1"
         transform="matrix(1.3333333,0,0,-1.3333333,15.406267,113.7396)" />
      <path
         id="path26"
         d="M 0,0 C -0.001,0.04 -0.023,1.142 -0.024,1.182 -0.059,2.211 -0.084,3.004 -0.062,4.12 -0.06,4.246 0.002,4.708 0.022,4.836 0.1,5.336 0.327,5.636 0.695,5.814 1.107,6.016 1.621,6.029 2.096,5.832 2.519,5.658 2.722,5.281 2.783,4.81 2.797,4.7 2.877,3.822 2.876,3.702 2.863,2.678 2.882,2.062 2.891,1.528 2.895,1.297 2.894,-0.097 2.908,0.06 2.969,0.716 3.002,3.249 3.252,4.002 3.396,4.435 3.657,4.747 4.046,4.931 4.477,5.134 5.159,5.001 5.45,4.688 5.735,4.382 5.896,3.995 5.932,3.534 5.964,3.129 5.913,2.638 5.912,2.29 5.912,1.422 5.848,0.457 5.898,-0.015 5.914,-0.155 5.973,0.378 6.191,0.722 6.598,1.36 8.035,1.484 8.09,0.083 8.115,-0.571 8.109,-0.541 8.109,-0.981 8.109,-1.498 8.098,-1.81 8.069,-2.184 8.039,-2.583 7.953,-3.487 7.828,-3.926 7.742,-4.227 7.457,-4.903 7.176,-5.31 c 0,0 -1.074,-1.25 -1.192,-1.812 C 5.867,-7.685 5.906,-7.688 5.883,-8.087 5.859,-8.485 6.004,-9.01 6.004,-9.01 c 0,0 -0.802,-0.103 -1.234,-0.033 -0.391,0.062 -0.875,0.84 -1,1.077 C 3.598,-7.638 3.23,-7.7 3.088,-7.942 2.863,-8.325 2.379,-9.013 2.037,-9.056 1.369,-9.14 -0.017,-9.085 -1.102,-9.075 c 0,0 0.185,1.011 -0.227,1.357 -0.305,0.26 -0.83,0.784 -1.144,1.061 l -0.832,0.921 c -0.284,0.36 -1.003,0.928 -1.243,1.985 -0.214,0.936 -0.193,1.395 0.036,1.77 0.233,0.38 0.67,0.587 0.854,0.625 0.209,0.042 0.692,0.039 0.875,-0.062 0.223,-0.123 0.314,-0.159 0.488,-0.392 0.23,-0.306 0.302,-0.459 0.214,-0.121 -0.098,0.374 -0.195,0.848 -0.406,1.552 -0.167,0.558 -0.342,0.859 -0.47,1.233 -0.155,0.456 -0.303,0.721 -0.496,1.181 -0.139,0.329 -0.364,1.049 -0.457,1.441 -0.119,0.507 0.033,0.922 0.244,1.206 0.253,0.339 0.962,0.489 1.357,0.35 0.371,-0.13 0.744,-0.511 0.916,-0.788 0.288,-0.46 0.357,-0.632 0.717,-1.542 C -0.283,1.711 0.009,0.301 0.02,0 Z"
         style="fill:#ffffff;fill-opacity:1;fill-rule:nonzero;stroke:#000000;stroke-width:0.75;stroke-linecap:butt;stroke-linejoin:round;stroke-miterlimit:4;stroke-dasharray:none;stroke-opacity:1"
         transform="matrix(1.3333333,0,0,-1.3333333,14.182267,238.19147)" />
      <path
         id="path27"
         d="M 0,0 V 3.459"
         style="fill:none;stroke:#000000;stroke-width:0.75;stroke-linecap:round;stroke-linejoin:miter;stroke-miterlimit:4;stroke-dasharray:none;stroke-opacity:1"
         transform="matrix(1.3333333,0,0,-1.3333333,20.7552,246.31253)" />
      <path
         id="path28"
         d="M 0,0 -0.016,3.473"
         style="fill:none;stroke:#000000;stroke-width:0.75;stroke-linecap:round;stroke-linejoin:miter;stroke-miterlimit:4;stroke-dasharray:none;stroke-opacity:1"
         transform="matrix(1.3333333,0,0,-1.3333333,18.067733,246.32813)" />
      <path
         id="path29"
         d="M 0,0 0.021,-3.426"
         style="fill:none;stroke:#000000;stroke-width:0.75;stroke-linecap:round;stroke-linejoin:miter;stroke-miterlimit:4;stroke-dasharray:none;stroke-opacity:1"
         transform="matrix(1.3333333,0,0,-1.3333333,15.406267,241.7396)" />
      <path
         id="path30"
         d="M 0,0 C 0,0 -0.023,1.142 -0.024,1.182 -0.059,2.211 -0.084,3.004 -0.062,4.12 -0.06,4.246 0.002,4.708 0.022,4.836 0.1,5.336 0.327,5.636 0.695,5.814 1.107,6.016 1.621,6.029 2.096,5.832 2.519,5.658 2.722,5.281 2.783,4.81 2.797,4.7 2.877,3.822 2.876,3.702 2.863,2.678 2.882,2.062 2.891,1.528 2.895,1.297 2.894,-0.097 2.908,0.06 2.969,0.716 3.002,3.249 3.252,4.002 3.396,4.435 3.657,4.747 4.046,4.931 4.477,5.134 5.159,5.001 5.45,4.688 5.735,4.382 5.896,3.995 5.932,3.534 5.964,3.129 5.913,2.638 5.912,2.29 5.912,1.422 5.891,0.966 5.875,0.169 5.874,0.13 5.86,-0.13 5.898,-0.015 5.992,0.267 6.086,0.528 6.164,0.731 6.213,0.856 6.405,1.346 6.523,1.591 6.637,1.824 6.734,1.96 6.938,2.278 7.138,2.592 7.353,2.727 7.605,2.839 8.146,3.074 8.715,2.728 8.907,2.249 8.993,2.033 8.916,1.535 8.879,1.144 8.818,0.496 8.625,-0.163 8.527,-0.505 8.399,-0.952 8.253,-1.739 8.187,-2.105 8.115,-2.5 7.953,-3.487 7.828,-3.926 7.742,-4.227 7.457,-4.903 7.176,-5.31 c 0,0 -1.074,-1.25 -1.192,-1.812 C 5.867,-7.685 5.906,-7.688 5.883,-8.087 5.859,-8.485 6.004,-9.01 6.004,-9.01 c 0,0 -0.802,-0.103 -1.234,-0.033 -0.391,0.062 -0.875,0.84 -1,1.077 C 3.598,-7.638 3.23,-7.7 3.088,-7.942 2.863,-8.325 2.379,-9.013 2.037,-9.056 1.369,-9.14 -0.017,-9.085 -1.102,-9.075 c 0,0 0.185,1.011 -0.227,1.357 -0.305,0.26 -0.83,0.784 -1.144,1.061 l -0.832,0.921 c -0.284,0.36 -1.003,0.928 -1.243,1.985 -0.214,0.936 -0.193,1.395 0.036,1.77 0.233,0.38 0.67,0.587 0.854,0.625 0.209,0.042 0.692,0.039 0.875,-0.062 0.223,-0.123 0.314,-0.159 0.488,-0.392 0.23,-0.306 0.302,-0.459 0.214,-0.121 -0.098,0.374 -0.195,0.848 -0.406,1.552 -0.167,0.558 -0.342,0.859 -0.47,1.233 -0.155,0.456 -0.303,0.721 -0.496,1.181 -0.139,0.329 -0.364,1.049 -0.457,1.441 -0.119,0.507 0.033,0.922 0.244,1.206 0.253,0.339 0.962,0.489 1.357,0.35 0.371,-0.13 0.744,-0.511 0.916,-0.788 0.288,-0.46 0.357,-0.632 0.717,-1.542 C -0.283,1.711 -0.011,0.301 0,0"
         style="fill:#ffffff;fill-opacity:1;fill-rule:nonzero;stroke:#000000;stroke-width:0.75;stroke-linecap:butt;stroke-linejoin:round;stroke-miterlimit:4;stroke-dasharray:none;stroke-opacity:1"
         transform="matrix(1.3333333,0,0,-1.3333333,14.182267,142.19147)" />
      <path
         id="path31"
         d="M 0,0 V 3.459"
         style="fill:none;stroke:#000000;stroke-width:0.75;stroke-linecap:round;stroke-linejoin:miter;stroke-miterlimit:4;stroke-dasharray:none;stroke-opacity:1"
         transform="matrix(1.3333333,0,0,-1.3333333,20.7552,150.31253)" />
      <path
         id="path32"
         d="M 0,0 -0.016,3.473"
         style="fill:none;stroke:#000000;stroke-width:0.75;stroke-linecap:round;stroke-linejoin:miter;stroke-miterlimit:4;stroke-dasharray:none;stroke-opacity:1"
         transform="matrix(1.3333333,0,0,-1.3333333,18.067733,150.32813)" />
      <path
         id="path33"
         d="M 0,0 0.021,-3.426"
         style="fill:none;stroke:#000000;stroke-width:0.75;stroke-linecap:round;stroke-linejoin:miter;stroke-miterlimit:4;stroke-dasharray:none;stroke-opacity:1"
         transform="matrix(1.3333333,0,0,-1.3333333,15.406267,145.7396)" />
      <path
         id="path34"
         d="M 0,0 C 0,0 -0.023,1.142 -0.024,1.182 -0.059,2.211 -0.084,3.004 -0.062,4.12 -0.06,4.246 0.002,4.708 0.022,4.836 0.1,5.336 0.327,5.636 0.695,5.814 1.107,6.016 1.621,6.029 2.096,5.832 2.519,5.658 2.722,5.281 2.783,4.81 2.797,4.7 2.877,3.822 2.876,3.702 2.863,2.678 2.882,2.062 2.891,1.528 2.895,1.297 2.894,-0.097 2.908,0.06 2.969,0.716 3.002,3.249 3.252,4.002 3.396,4.435 3.657,4.747 4.046,4.931 4.477,5.134 5.159,5.001 5.45,4.688 5.735,4.382 5.896,3.995 5.932,3.534 5.964,3.129 5.913,2.638 5.912,2.29 5.912,1.422 5.891,0.966 5.875,0.169 5.874,0.13 5.86,-0.13 5.898,-0.015 5.992,0.267 6.086,0.528 6.164,0.731 6.213,0.856 6.405,1.346 6.523,1.591 6.637,1.824 6.734,1.96 6.938,2.278 7.138,2.592 7.353,2.727 7.605,2.839 8.146,3.074 8.715,2.728 8.907,2.249 8.993,2.033 8.916,1.535 8.879,1.144 8.818,0.496 8.625,-0.163 8.527,-0.505 8.399,-0.952 8.253,-1.739 8.187,-2.105 8.115,-2.5 7.953,-3.487 7.828,-3.926 7.742,-4.227 7.457,-4.903 7.176,-5.31 c 0,0 -1.074,-1.25 -1.192,-1.812 C 5.867,-7.685 5.906,-7.688 5.883,-8.087 5.859,-8.485 6.004,-9.01 6.004,-9.01 c 0,0 -0.802,-0.103 -1.234,-0.033 -0.391,0.062 -0.875,0.84 -1,1.077 C 3.598,-7.638 3.23,-7.7 3.088,-7.942 2.863,-8.325 2.379,-9.013 2.037,-9.056 1.369,-9.14 -0.017,-9.085 -1.102,-9.075 c 0,0 0.185,1.011 -0.227,1.357 -0.305,0.26 -0.83,0.784 -1.144,1.061 l -0.832,0.921 c -0.284,0.36 -1.003,0.928 -1.243,1.985 -0.214,0.936 -0.193,1.395 0.036,1.77 0.233,0.38 0.67,0.587 0.854,0.625 0.209,0.042 0.692,0.039 0.875,-0.062 0.223,-0.123 0.314,-0.159 0.488,-0.392 0.23,-0.306 0.302,-0.459 0.214,-0.121 -0.098,0.374 -0.195,0.848 -0.406,1.552 -0.167,0.558 -0.342,0.859 -0.47,1.233 -0.155,0.456 -0.303,0.721 -0.496,1.181 -0.139,0.329 -0.364,1.049 -0.457,1.441 -0.119,0.507 0.033,0.922 0.244,1.206 0.253,0.339 0.962,0.489 1.357,0.35 0.371,-0.13 0.744,-0.511 0.916,-0.788 0.288,-0.46 0.357,-0.632 0.717,-1.542 C -0.283,1.711 -0.011,0.301 0,0"
         style="fill:#ffffff;fill-opacity:1;fill-rule:nonzero;stroke:#000000;stroke-width:0.75;stroke-linecap:butt;stroke-linejoin:round;stroke-miterlimit:4;stroke-dasharray:none;stroke-opacity:1"
         transform="matrix(1.3333333,0,0,-1.3333333,14.182267,206.19147)" />
      <path
         id="path35"
         d="M 0,0 V 3.459"
         style="fill:none;stroke:#000000;stroke-width:0.75;stroke-linecap:round;stroke-linejoin:miter;stroke-miterlimit:4;stroke-dasharray:none;stroke-opacity:1"
         transform="matrix(1.3333333,0,0,-1.3333333,20.7552,214.31253)" />
      <path
         id="path36"
         d="M 0,0 -0.016,3.473"
         style="fill:none;stroke:#000000;stroke-width:0.75;stroke-linecap:round;stroke-linejoin:miter;stroke-miterlimit:4;stroke-dasharray:none;stroke-opacity:1"
         transform="matrix(1.3333333,0,0,-1.3333333,18.067733,214.32813)" />
      <path
         id="path37"
         d="M 0,0 0.021,-3.426"
         style="fill:none;stroke:#000000;stroke-width:0.75;stroke-linecap:round;stroke-linejoin:miter;stroke-miterlimit:4;stroke-dasharray:none;stroke-opacity:1"
         transform="matrix(1.3333333,0,0,-1.3333333,15.406267,209.7396)" />
      <path
         id="path38"
         d="m 0,0 c -0.098,0.375 -0.196,0.847 -0.406,1.552 -0.167,0.557 -0.342,0.859 -0.47,1.233 -0.155,0.455 -0.303,0.721 -0.496,1.181 -0.139,0.329 -0.364,1.048 -0.457,1.44 -0.119,0.509 0.033,0.924 0.244,1.206 0.253,0.339 0.962,0.49 1.357,0.351 C 0.143,6.833 0.516,6.451 0.688,6.175 0.976,5.715 1.045,5.543 1.405,4.633 1.798,3.641 1.969,2.715 2.016,2.402 L 2.101,1.95 C 2.1,1.99 2.058,3.072 2.057,3.112 2.022,4.141 1.997,4.935 2.019,6.051 2.021,6.177 2.083,6.638 2.103,6.766 2.181,7.266 2.408,7.566 2.776,7.745 3.188,7.946 3.702,7.96 4.177,7.762 4.6,7.589 4.803,7.212 4.864,6.74 4.878,6.631 4.958,5.753 4.957,5.633 4.944,4.608 4.963,3.992 4.972,3.459 4.976,3.228 4.975,1.834 4.989,1.99 5.05,2.646 5.083,5.179 5.333,5.932 5.477,6.365 5.738,6.678 6.127,6.861 6.558,7.064 7.24,6.931 7.531,6.618 7.816,6.313 7.977,5.926 8.013,5.465 8.045,5.06 7.994,4.568 7.993,4.22 7.993,3.353 7.972,2.896 7.956,2.099 7.955,2.061 7.941,1.801 7.979,1.917 8.073,2.197 8.167,2.459 8.245,2.662 8.294,2.787 8.486,3.276 8.604,3.521 8.718,3.755 8.815,3.89 9.019,4.209 9.219,4.522 9.434,4.657 9.688,4.77 10.227,5.005 10.796,4.658 10.988,4.179 11.074,3.964 10.997,3.466 10.96,3.074 10.899,2.427 10.706,1.768 10.608,1.426 10.48,0.979 10.334,0.191 10.268,-0.175 10.196,-0.569 10.034,-1.557 9.909,-1.995 9.823,-2.296 9.538,-2.973 9.257,-3.379 c 0,0 -1.074,-1.25 -1.192,-1.812 C 7.948,-5.754 7.987,-5.758 7.964,-6.156 7.94,-6.555 8.085,-7.079 8.085,-7.079 c 0,0 -0.802,-0.104 -1.234,-0.034 -0.391,0.062 -0.875,0.841 -1,1.078 C 5.679,-5.707 5.313,-5.77 5.169,-6.012 4.944,-6.395 4.46,-7.082 4.118,-7.125 3.45,-7.209 2.064,-7.155 0.979,-7.145 c 0,0 0.185,1.011 -0.227,1.358 -0.305,0.26 -0.83,0.784 -1.144,1.06 l -0.832,0.921 c -0.284,0.36 -0.629,1.093 -1.243,1.985 -0.348,0.504 -1.027,1.085 -1.284,1.579 -0.223,0.425 -0.331,0.954 -0.19,1.325 0.225,0.594 0.675,0.897 1.362,0.832 0.519,-0.05 0.848,-0.206 1.238,-0.537 0.225,-0.19 0.573,-0.534 0.75,-0.748 C -0.428,0.435 -0.388,0.354 -0.214,0.121 0.016,-0.186 0.088,-0.338 0,0"
         style="fill:#ffffff;fill-opacity:1;fill-rule:nonzero;stroke:#000000;stroke-width:0.75;stroke-linecap:round;stroke-linejoin:round;stroke-miterlimit:4;stroke-dasharray:none;stroke-opacity:1"
         transform="matrix(1.3333333,0,0,-1.3333333,11.4076,176.7656)" />
      <path
         id="path39"
         d="M 0,0 V 3.459"
         style="fill:none;stroke:#000000;stroke-width:0.75;stroke-linecap:round;stroke-linejoin:miter;stroke-miterlimit:4;stroke-dasharray:none;stroke-opacity:1"
         transform="matrix(1.3333333,0,0,-1.3333333,20.7552,182.31253)" />
      <path
         id="path40"
         d="M 0,0 -0.016,3.473"
         style="fill:none;stroke:#000000;stroke-width:0.75;stroke-linecap:round;stroke-linejoin:miter;stroke-miterlimit:4;stroke-dasharray:none;stroke-opacity:1"
         transform="matrix(1.3333333,0,0,-1.3333333,18.067733,182.32813)" />
      <path
         id="path41"
         d="M 0,0 0.021,-3.426"
         style="fill:none;stroke:#000000;stroke-width:0.75;stroke-linecap:round;stroke-linejoin:miter;stroke-miterlimit:4;stroke-dasharray:none;stroke-opacity:1"
         transform="matrix(1.3333333,0,0,-1.3333333,15.406267,177.7396)" />
    </g>
  </g>
</svg>
